<?xml version="1.0" encoding="UTF-8" standalone="no"?>
<!-- Created with Inkscape (http://www.inkscape.org/) -->

<svg
   xmlns:dc="http://purl.org/dc/elements/1.1/"
   xmlns:cc="http://creativecommons.org/ns#"
   xmlns:rdf="http://www.w3.org/1999/02/22-rdf-syntax-ns#"
   xmlns:svg="http://www.w3.org/2000/svg"
   xmlns="http://www.w3.org/2000/svg"
   xmlns:sodipodi="http://sodipodi.sourceforge.net/DTD/sodipodi-0.dtd"
   xmlns:inkscape="http://www.inkscape.org/namespaces/inkscape"
   id="svg2"
   version="1.1"
   inkscape:version="0.48.4 r9939"
   preserveAspectRatio="xMinYMin meet"
   sodipodi:docname="smiley.svg">
  <metadata
     id="metadata71">
    <rdf:RDF>
      <cc:Work
         rdf:about="">
        <dc:format>image/svg+xml</dc:format>
        <dc:type
           rdf:resource="http://purl.org/dc/dcmitype/StillImage" />
      </cc:Work>
    </rdf:RDF>
  </metadata>
  <defs
     id="defs69" />
  <sodipodi:namedview
     pagecolor="#ffffff"
     bordercolor="#666666"
     borderopacity="1"
     objecttolerance="10"
     gridtolerance="10"
     guidetolerance="10"
     inkscape:pageopacity="0"
     inkscape:pageshadow="2"
     inkscape:window-width="1299"
     inkscape:window-height="744"
     id="namedview67"
     showgrid="false"
     inkscape:zoom="1.18"
     inkscape:cx="315.69299"
     inkscape:cy="219.38612"
     inkscape:window-x="67"
     inkscape:window-y="24"
     inkscape:window-maximized="1"
     inkscape:current-layer="svg2" />
  <path
     style="fill:#000000"
     d="m 183.06304,399.06984 c -6.59534,-0.50535 -7.27024,-0.73959 -5.96375,-2.06984 0.81026,-0.825 2.68239,-3.10174 4.16029,-5.05943 8.36338,-11.07849 23.20166,-9.93751 31.54547,2.42568 3.56005,5.27498 3.17736,5.63375 -6.00928,5.63375 -10.43935,-0.0918 -3.22851,0.11163 -11.35464,-0.18016 -2.71762,-0.0991 -8.28776,-0.43659 -12.37809,-0.75 z"
     id="path3112" />
  <path
     style="fill:#000000"
     d="m 211.1309,399.01484 c 13.65339,-3.9555 13.48581,-3.33397 37.88519,-9.74708 51.27371,-15.57467 42.72101,-13.01069 38.64587,-9.11176 -22.51206,11.1829 -83.85867,23.11816 -76.53106,18.85884 z"
     id="path3110"
     inkscape:connector-curvature="0"
     sodipodi:nodetypes="cccc" />
  <path
     style="fill:#000000"
     d="m 121.18026,383.37223 c -17.57658,-8.99819 35.52149,11.7983 59.56164,15.37649 -30.62503,-3.70234 -59.86968,-15.73031 -59.56164,-15.37649 z"
     id="path3108" />
  <path
     style="fill:#000000"
     d="M 116.70047,381.06616 C 109.82715,378.79776 92.4461,368.94421 81.597717,361.16593 55.674483,335.63127 53.376301,333.05698 37.822426,312.96776 c -6.706711,-6.67231 -11.402282,-13.9231 -12.357174,-15.38045 -2.206387,-3.36737 -1.510587,-4.02593 1.566647,-1.79344 2.09909,1.60152 2.389449,2.26006 4.431627,4.01475 6.155446,4.71873 18.183656,23.34018 22.025186,24.61126 23.587895,25.19081 21.970874,35.15089 39.940468,-1.08852 5.341125,-7.63701 12.54879,-15.9071 18.82082,-22.64471 14.22979,-14.60381 21.82654,-18.88389 36.09979,-26.00353 6.61877,-2.12511 7.80076,-2.32574 10.52536,-3.14353 7.8173,-0.47693 -9.17928,-34.94639 -13.26243,-40.33844 C 128.34622,208.97527 102.63089,195.64005 74.5,194.32419 49.772494,193.16753 25.883396,200.82794 7.3293921,215.86348 l -6.1706079,5.00045 0.094337,-3.79213 C 7.2444227,213.1695 13.555058,205.97259 26.5,200.35789 c 9.828389,-5.77802 23.426716,-6.18914 29.497088,-7.85437 6.595384,-0.63842 9.521369,-0.30486 14.099403,-1.38163 C 77.611115,171.38362 33.169698,140.56855 20.5,136.44906 c -4.95,-1.51854 -9.148959,-2.87726 -9.33102,-3.01937 -0.284121,-0.22179 1.557369,-4.28541 2.386564,-5.26645 0.156549,-0.18521 3.61685,2.36021 8.214437,4.75 4.860085,2.41863 9.595934,4.81913 14.308435,6.70987 10.255276,5.66871 6.399498,2.88283 16.869832,10.51122 7.719046,8.48845 5.619001,0.86899 9.040321,-6.36662 2.056832,-4.64413 4.262377,-8.58021 5.011431,-10.36751 0.245606,-0.58603 0.675,-1.71551 1.5,-2.4002 3.979571,-5.68449 6.577567,-8.05209 8.460111,-9.20716 2.058108,-2.26562 1.990676,-1.55703 4.990267,-3.88503 1.499145,0.23671 0.987261,-1.13756 -1.843649,-5.22763 C 70.996212,99.517374 55.656909,90.167923 40.160563,88.33261 37.322253,87.996455 35,87.511356 35,87.254613 c 0,-1.320582 6.56798,-8.496967 8.862602,-9.683562 1.455773,-0.752809 4.444732,-3.640958 6.642129,-6.418108 3.655769,-4.620291 6.239431,-6.742114 7.127837,-5.853708 0.190472,0.190471 -0.548936,1.307248 -1.643128,2.481725 C 54.895248,68.955437 54,70.155045 54,70.446756 c 0,0.29171 -0.7875,1.447667 -1.75,2.568792 -0.9625,1.121126 -3.888462,3.414148 -5.037322,5.461809 -4.787024,4.825289 -9.615516,8.750564 0.132881,9.089053 1.290058,-0.141612 3.013712,0.731707 3.571398,0.387038 7.484423,2.556368 8.506302,4.016036 12.147443,6.067298 4.036141,-1.523473 5.66985,-1.721384 6.90562,2.867918 5.347811,0.984899 6.381667,8.908766 10.415009,12.555856 1.036764,0.8104 3.91017,1.77715 6.385347,2.14833 12.515638,-0.50456 6.494765,-5.94829 10.786332,-12.370314 C 100.79058,94.605507 107,97.898821 107,104.23098 c 0,2.48897 -4.89056,2.50938 -3.18927,1.4469 5.79196,-1.76088 10.50737,-2.50151 17.73147,-2.47939 2.49629,0 4.18187,0.39504 3.9578,-0.19849 2.84667,0.5729 2.07553,-7.917587 1.60421,-11.676235 -2.95858,-10.832651 -2.29836,-9.114466 1.43795,-2.704182 0.89833,1.541244 1.43943,13.780867 1.10002,15.078777 23.20055,9.53284 16.47225,1.79109 17.62662,-4.672237 0.57852,-7.669291 0.52914,-16.323236 3.42797,-16.61068 -1.08168,4.722521 0.76513,-4.269045 -2.18219,12.178466 0.42352,11.219671 0.33319,14.224671 6.09827,17.706911 5.62746,4.85936 17.70352,16.0208 19.00743,8.04638 3.96887,-6.92207 3.01143,-4.95219 6.64644,-10.04632 1.14092,-0.74061 1.00812,-1.36019 -0.26672,-2.26076 -3.83791,-2.71118 -11.98806,-6.69251 -16.19732,-7.44767 -7.28971,-1.457955 -12.38489,6.62529 -13.36689,4.09375 -2.03362,-5.279035 5.42244,-10.36429 13.49055,-9.20096 5.36934,0.774197 14.12218,4.55162 18.78147,8.10544 1.62463,2.1262 1.18755,0.74336 9.1483,-5.167478 3.24958,-1.855485 5.6772,-3.920439 8.45749,-5.77627 4.81063,-2.086066 3.03474,-1.557489 9.55824,-4.076221 3.95622,-1.06216 6.93133,-1.598326 8.61201,-1.977926 2.20708,-0.498491 3.54021,-0.694518 4.89849,-0.698659 C 227.1583,85.882615 229,86.15471 229,84.257533 c 0,-2.505101 -5.94751,-12.405452 -9.386,-15.624142 -14.83865,-13.890093 -35.46355,-15.596898 -53.19054,-4.401762 -2.2421,1.415953 -5.48087,4.30559 -7.19727,6.421415 C 157.50978,72.76887 155.16778,75.625 154.02173,77 l -2.08373,2.5 -1.0673,-0.677933 c 0.22567,-1.077728 2.01742,-3.078609 3.90458,-6.87642 C 156.57301,70.611979 156.75886,70.335111 157.5,68 c 0.34913,-1.1 1.19344,-2 1.87626,-2 0.68281,0 2.10832,-0.633851 3.1678,-1.408558 1.86603,-1.364474 1.82175,-1.554161 -1.4147,-6.06084 -1.83756,-2.558754 -3.04392,-4.949371 -2.68081,-5.312481 0.36311,-0.36311 1.01447,-0.08698 1.44746,0.613626 0.433,0.700604 1.44309,0.661383 1.69563,1.102618 0.96045,1.678059 1.07722,2.298403 2.17371,3.96382 2.24436,2.326741 6.46876,-1.989485 7.77398,-2.961817 C 171.85762,55.421366 173.01803,55 174.11803,55 c 1.1,0 1.72189,0.45 1.38197,1 -0.97772,1.581976 1.12036,1.162361 2.5,-0.5 0.68469,-0.825 2.31479,-1.5 3.62244,-1.5 C 182.9301,54 184,53.491121 184,52.869158 c 0,-1.143051 4.41431,-0.789751 8.5,0.680298 6.4218,1.801378 2.8838,0.600837 12.39015,-5.165451 0.53478,-0.534777 1.84367,-1.416864 2.66729,-1.227785 1.24789,0.286479 0.24982,1.288353 -3.47421,3.602476 -5.16255,3.208023 -6.12222,5.41082 -2.6505,6.08386 4.38445,0.86039 0.0903,-0.0459 6.13102,1.260596 0.2766,0.447542 3.20173,1.797754 6.50029,3.000471 3.29857,1.202716 6.28239,2.647894 6.63072,3.211506 0.38454,0.622193 -0.0204,0.773903 -1.03072,0.386195 -2.70563,-1.03825 -1.90356,0.182414 1.46653,2.231886 3.5958,2.902341 3.10567,4.2029 8.86943,11.132907 1.61842,1.747692 3.07701,5.061685 5.77749,6.933883 0.59533,0.907097 2.63585,5.501325 10.19301,2.535543 0.66847,-0.805451 3.64857,-3.079505 6.62245,-5.053454 12.53787,-12.565431 6.20119,-6.101503 4.06334,-13.688419 -0.31733,-1.213481 -0.48231,-2.289888 -0.36663,-2.392015 0.11569,-0.102127 2.46034,0.17438 5.21034,0.61446 3.96546,0.634588 5.31036,0.479645 6.5,-0.748852 2.91547,-2.897403 10.37431,-7.083016 14.62324,-8.563652 1.73754,2.273623 4.48988,0.986768 -3.77778,4.948445 -5.98677,2.868722 -18.7414,13.551777 -21.23724,19.098727 -1.04048,2.312441 -2.6568,4.447248 -3.59183,4.744015 -0.93503,0.296767 -2.70854,1.613061 -3.94114,2.925097 -2.00906,2.138549 -1.15245,0.871603 -0.40816,2.232813 4.18575,0.690632 11.55336,4.994374 14.55751,8.313027 6.76582,6.870715 5.48535,5.719215 9.7754,11.124115 1.48305,1.96748 1.20364,0.74573 8.07057,-1.7994 10.4106,-3.85854 20.19823,-5.36698 29.9205,-2.87325 3.57008,0.91571 6.83821,2.01208 7.2625,2.43637 0.42429,0.42429 -1.4329,3.2337 0.16703,3.79343 8.45686,2.95857 4.91815,0.92967 -5.7625,4.31067 -10.42075,3.29873 -24.71178,10.7574 -32.17248,18.49086 -6.04526,8.2607 -16.80522,21.70888 -10.85126,24.22616 C 287.18804,166.01818 291.891,179.92849 296,186 c 0.26904,4.66476 1.70927,6.18657 2,6.93873 2.64179,7.8415 3.44935,15.50721 4.50284,19.07022 1.55071,5.17467 -0.95516,4.45994 3.68572,8.95209 2.42376,2.31438 4.29783,1.08755 10.23075,-2.02304 21.19806,-11.55542 29.18476,-13.16924 45.13185,-16.0207 7.70032,-2.78589 6.28553,3.77082 13.70492,-9.59356 1.42658,-2.24252 1.55831,-3.89541 6.79451,-11.52641 -4.51848,-1.79773 -13.79726,-1.17281 -20.54095,1.17494 -5.15876,1.79597 -9.6093,4.21879 -22.09419,12.02781 -2.86354,1.79108 -5.73554,0.50114 -6.22778,-2.79717 -0.6493,-4.35068 19.78508,-15.40441 32.61007,-18.03515 8.66587,-1.7776 15.07489,-0.32882 21.39832,2.16239 1.11681,-0.58191 8.09103,-5.32494 6.32412,-8.015 -0.39066,-3.12672 -1.05161,-6.61422 -1.4688,-7.75 -0.41718,-1.13579 -1.0777,-3.38115 -1.46782,-4.9897 -2.66879,-7.77223 -8.9132,-17.92259 -14.44928,-22.23101 -31.65021,-20.75391 -21.79465,-18.3198 -19.04786,-16.31314 2.83179,2.06876 5.274,0.98608 20.9136,12.91834 8.71662,8.74078 15.49508,18.98698 17.49914,27.55044 0.76146,3.3 1.67432,8.0546 2.02858,10.56578 0.62183,4.40777 0.51213,4.66644 -3.16957,7.47462 -6.49682,4.95536 -13.33845,13.5404 -17.78748,22.32014 -1.41387,2.79014 -2.72308,4.16819 -2.57067,4.69771 8.74597,0.40601 15.65265,1.38321 23.25,3.40994 1.85875,0.0215 2.75,0.55845 2.75,1.6568 0,1.3025 -0.64499,1.49358 -3.25,0.96279 -8.96153,-1.82597 -24.47162,-2.58787 -33.60392,-1.65072 -42.28041,4.33879 -76.44901,32.94826 -86.61504,72.52303 -1.45544,7.00995 -4.50045,6.39855 3.00427,12.89377 4.8923,3.95995 1.44043,4.22105 -7.13472,-2.00411 -22.92006,-16.63891 -43.49639,-21.34579 -71.78018,-21.34839 -12.38414,-10e-4 -16.82159,0.43418 -26.45903,2.59568 -41.84434,9.38493 -77.53327,41.49174 -89.768606,80.7585 -1.785409,5.7299 -1.783274,5.88574 0.09949,7.26245 7.198739,5.67799 4.803809,3.32146 17.102036,11.85177 9.94187,5.22276 23.21629,12.12848 21.3742,12.15561 -1.9382,-0.72567 -3.33885,-0.72405 -6.26805,-2.55929 z"
     id="path3106" />
  <path
     style="fill:#ffffff;fill-opacity:1"
     d="m 274,270.5 c 1.90971,-5.21666 4.11069,-10.54354 6.69344,-14.14023 4.15086,-6.53226 2.45926,-4.91745 7.53738,-12.69903 2.54021,-4.20121 11.7353,-10.61994 11.76916,-19.53295 0,-14.99448 -4.059,-28.43071 -12.36151,-40.91947 -20.95589,-31.52217 -61.92874,-43.8018 -97.1823,-29.12571 -26.66496,11.10066 -45.88479,36.71028 -47.219,62.91739 -0.43528,3.71574 1.00956,8.44004 3.41504,10.49043 5.75703,7.36615 4.32991,6.58059 9.14118,14.41354 9.62144,20.08708 8.84191,23.05836 13.70661,26.09603 4.77959,-1.86595 16.61449,-2.92158 22.35019,-3.88007 13.98425,0.0483 15.4733,-0.47612 33.27489,2.18828 19.45016,4.35129 24.68082,6.62545 32.91365,9.76416 4.14223,1.76054 7.66504,3.92284 12.80639,6.45237 0.12549,-3.21401 2.1072,-8.56059 3.15488,-12.02474 z"
     id="path3104"
     inkscape:connector-curvature="0"
     sodipodi:nodetypes="ccccssccccccccc" />
  <path
     style="fill:#000000"
     d="m 203.06058,221.9435 c -8.07334,-1.08294 -18.34015,-4.22776 -23.56058,-7.21684 -3.4183,-1.95722 -4,-2.77881 -4,-5.64949 0,-4.52493 2.34416,-5.98707 6.72456,-4.19434 13.80748,5.65086 16.50405,6.33774 26.77544,6.82035 17.37562,0.8164 33.37804,-4.12215 44.18718,-13.63674 5.27448,-4.64278 6.05375,-4.82551 8.81282,-2.06644 3.61884,3.61884 2.60698,6.37113 -4.25,11.56021 -14.85861,11.24437 -36.21579,16.86129 -54.68942,14.38329 z"
     id="path3102" />
  <path
     style="fill:#000000"
     d="m 173,196 c -7.56232,-7.56232 8.06558,-24.68055 15.98709,-17.51168 1.44616,1.30875 2.3722,3.09207 2.01291,6.29825 -0.29951,2.67272 -1.0413,4.98823 -4.36842,8.84501 -3.28308,3.80573 -5.04545,4.36842 -8,4.36842 -2.29825,0 -4.36588,-0.7343 -5.63158,-2 z"
     id="path3100" />
  <path
     style="fill:#000000"
     d="M 249.45042,187.5934 C 239.392,183.21223 237.84583,169 247.42761,169 254.60779,169 262,175.60473 262,182.02002 c 0,6.26711 -5.42529,8.67653 -12.54958,5.57338 z"
     id="path3098" />
  <path
     style="fill:#ffffff;fill-opacity:1"
     d="m 146.48305,192.41005 c 6.21101,-13.88825 5.9321,-11.20167 5.01695,-12.24606 -3.78459,-1.38469 -5.66088,-2.5553 -15.5,-2.5274 -11.04361,0.0313 -13.26009,1.23543 -19.02373,3.51888 -3.58805,1.42151 -8.85576,4.01948 -11.70603,5.77327 -4.26722,2.62564 -5.543213,2.99554 -7.226267,2.09479 -3.677236,-1.96799 -2.580842,-5.52198 2.706027,-8.77166 14.81819,-9.10828 36.89647,-11.44286 48.7899,-8.62497 9.51975,2.2555 6.31473,1.89683 9.646,-0.38423 5.46951,-5.61911 4.17236,-4.35368 7.69546,-7.47602 3.98459,-2.7938 7.54992,-5.27556 7.86408,-5.45105 9.1326,-2.52187 4.00799,-12.10292 1.97958,-16.53495 C 170.64055,128.61162 157.96269,117.12741 143,111.23092 c -11.65775,-4.59408 -28.57782,-5.33343 -40.29659,-1.76083 -14.043302,4.28125 -29.018396,16.82266 -35.857273,30.02991 -3.666099,7.07997 -7.145238,19.55698 -6.165373,22.11047 15.314246,17.82075 13.088909,28.95935 20.441837,28.1874 3.460084,1.40432 7.851011,2.67062 10.8667,2.73204 14.862839,5.64545 26.319189,7.78034 38.256709,6.03358 6.66871,-0.14924 13.79647,0.053 16.23704,-6.15344 z"
     id="path3096"
     inkscape:connector-curvature="0"
     sodipodi:nodetypes="ccssssssccccsssccccc" />
  <path
     style="fill:#000000"
     d="M 95.200667,166.97232 C 92.288897,164.2596 91.56321,160.85352 92.98145,156.55621 94.404824,152.24334 97.370922,150 101.64993,150 c 6.89851,0 10.21893,11.22205 4.89552,16.54545 -3.0878,3.08781 -8.278949,3.28313 -11.344783,0.42687 z"
     id="path3094" />
  <path
     style="fill:#000000"
     d="m 150.96007,161.96007 c -4.67546,-4.67546 -4.91429,-12.63351 -0.46661,-15.54774 6.82143,-4.46958 15.7156,9.27923 10.05155,15.53793 -2.38077,2.63073 -6.95934,2.63541 -9.58494,0.01 z"
     id="path3092" />
  <path
     style="fill:#ffffff;fill-opacity:1"
     d="m 272.43278,143.39695 c 1.76853,-1.9536 1.55699,-3.50864 5.49186,-7.87305 2.82029,-2.69286 2.67418,-4.16271 -0.55239,-12.35336 C 271.46193,108.1672 257.93457,96.067844 242,91.53236 c -7.78927,-2.217072 -20.30986,-2.48744 -28,-0.604627 -12.72174,3.114722 -26.22172,12.693787 -32.73525,23.227677 -6.749,10.9147 -6.13503,15.2312 -4.92178,19.26648 7.49611,18.72936 9.03731,20.64124 30.07586,11.30311 10.80202,-6.94506 19.21491,-9.21038 31.70909,-8.53822 12.93343,0.69578 24.98146,6.74253 23.39483,11.74156 -0.88448,2.78674 -2.16088,2.62915 -9.54344,-1.17834 -5.94351,-3.0653 -6.90339,-3.25 -16.89047,-3.25 -7.26694,0 -11.6326,0.47058 -13.91591,1.5 -3.16343,1.42623 -2.74989,1.48962 8.40855,1.28897 6.45459,-0.11606 12.22677,0.097 12.82707,0.47357 0.6003,0.37653 1.54145,0.72221 2.09145,0.76818 0.99308,0.083 1.77674,0.38391 8.5,3.26375 1.925,0.82455 4.10373,1.62435 4.84163,1.77732 0.7379,0.15298 1.6004,0.53691 1.91667,0.85317 6.07123,4.89539 11.59103,-7.72711 12.67448,-10.02801 z"
     id="path3090" />
  <path
     style="fill:#000000"
     d="m 199.5567,132.77753 c -1.95507,-2.79126 -1.96715,-5.08309 -0.0464,-8.79751 2.66397,-5.1515 7.9478,-6.52192 11.4897,-2.98002 2.62857,2.62857 2.59443,7.97459 -0.0726,11.36514 -2.76461,3.51464 -9.03843,3.74215 -11.37072,0.41235 z"
     id="path3088" />
  <path
     style="fill:#000000"
     d="M 249.92308,129.07696 C 247.6976,126.85144 247,125.22861 247,122.27692 c 0,-7.27536 5.66456,-8.70087 10.89641,-2.74212 3.43982,3.91773 3.88985,6.89764 1.54689,10.24269 -2.1754,3.10582 -5.99491,2.82475 -9.52022,-0.70057 z"
     id="path3086" />
  <path
     style="fill:#ffffff;fill-opacity:1"
     d="m 301.37314,118.65954 c 1.86759,-0.50987 4.31862,-1.93215 8.58061,-3.16525 3.37297,-0.97589 6.34569,-1.84063 6.34575,-2.14264 1.9e-4,-0.88655 -5.99965,-2.8142 -10.81677,-3.4719 -2.44919,-0.3344 -7.92523,-0.35453 -11.11618,0.32835 -9.46113,2.02474 -17.48249,5.04792 -15.86655,8.7919 1.41765,4.32958 2.30288,7.95576 3.91914,10.97682 1.64525,-0.40042 3.66594,-4.79761 18.954,-11.31728 z"
     id="path3084"
     inkscape:connector-curvature="0"
     sodipodi:nodetypes="cscssccc" />
  <path
     style="fill:#000000"
     d="m 287.73867,374.75 c 1.01362,-11.95633 3.15517,-15.75 8.89097,-15.75 2.7381,0 4.46745,0.92656 8.05401,4.31526 l 4.56723,4.31526 -4.87544,3.05921 c -4.65674,2.92198 -15.99206,9.81345 -16.79024,9.31027 -0.13568,-0.0855 -0.0913,-2.3625 0.15347,-5.25 z"
     id="path3082" />
  <path
     style="fill:#000000"
     d="m 315.42727,360.62555 c 4.58225,-2.89568 1.19218,-0.66386 4.15606,-2.62555 2.46623,-1.94754 1.75719,-1.99577 -2.59816,-12.66497 -5.83193,-14.28632 -11.83883,-23.37163 -23.16937,-36.49992 -4.74239,-5.49483 -9.41126,-9.46791 -17.80066,-16.65574 -0.1683,-0.1442 -0.22171,-1.65739 1.6906,-1.50678 14.19746,11.38069 16.62262,15.42351 23.28438,21.74693 3.47027,3.64646 4.95241,4.07682 11.50988,6.58567 5.5,1.9618 15.07661,6.21407 21.28136,9.4495 8.60619,4.48763 11.55849,5.60546 12.45,4.71395 2.50055,-2.91136 3.79733,-3.56091 7.13853,-7.95811 0.26835,-0.4342 -0.83009,-2.75192 -2.44098,-5.15048 -6.36172,-11.11572 0.92178,-25.64466 12.76469,-26.06005 2.5858,0 8.9498,2.61399 9.82955,4.03746 1.61805,2.61805 -17.47018,28.32855 -31.78937,42.81804 -9.55313,9.66676 -31.77073,27.44034 -34.0514,27.44034 -2.17508,0.79559 -9.17906,4.28236 7.74489,-7.67029 z"
     id="path3080"
     inkscape:connector-curvature="0"
     sodipodi:nodetypes="ccssscccsccccsscc" />
  <path
     style="fill:#ffffff;fill-opacity:1"
     d="m 327.97427,330.28032 c -1.42188,-0.80661 -2.27427,-1.54334 -4.47427,-2.24475 -3.55015,-1.77894 -9.23682,-4.44005 -13.09262,-4.76301 -2.71342,-0.15258 -2.15618,1.76595 3.06888,4.80218 2.80156,1.62796 4.51379,2.32384 10.36162,4.84988 4.54493,2.06398 3.58962,2.01796 11.21174,5.60016 12.35413,4.18282 -1.64699,-5.95087 -7.07535,-8.24446 z"
     id="path3078" />
  <path
     style="fill:#000000"
     d="M 52.5,310.90479 C 46.601365,304.96276 36.424123,297.64258 28.379826,293.55587 21.422779,290.02151 21.229255,289.81645 17.647513,282.18389 15.641381,277.90889 14,274.13334 14,273.79377 c 0,-0.90054 15.148233,5.53831 21.798812,9.26572 5.330592,2.9876 18.354769,11.99567 20.787125,14.37724 0.597265,0.5848 2.916729,2.71072 5.154363,4.72427 4.992714,4.49272 5.959494,7.12203 3.819575,10.38796 -1.238067,1.88953 -2.459786,2.4435 -5.332928,2.41815 -3.001492,-0.0265 -4.505552,-0.81723 -7.726947,-4.06232 z"
     id="path3076" />
  <path
     style="fill:#000000"
     d="m 61.593758,309.8483 c 0.391486,-0.63344 -0.03196,-1.69555 -0.940983,-2.36025 -4.147092,-4.22222 -9.551316,-7.99813 -13.268797,-11.23805 -2.591167,-2.27507 -4.939131,-3.77225 -10.084653,-6.43049 -10.949727,-4.89914 -7.809659,-4.45814 -11.579634,-4.95158 -10.141887,-2.59687 16.930625,12.54945 22.480082,16.37108 1.265125,0.84417 4.287602,3.38574 6.716617,5.64792 4.717972,4.39394 5.560938,4.76779 6.677368,2.96137 z"
     id="path3074" />
  <path
     style="fill:#000000"
     d="m 283.96603,298.25 c -4.33952,-5.47633 -1.00754,-20.92578 5.64093,-26.15547 3.47739,-2.73532 4.98816,-2.64209 7.00245,0.4321 3.85638,5.88559 -0.5952,23.8633 -6.68929,27.01468 -3.6257,1.87492 -3.40766,1.92221 -5.95409,-1.29131 z"
     id="path3072" />
  <path
     style="fill:#000000"
     d="m 58.218183,280.33692 c -9.592923,-4.72816 -10.434075,-17.55012 -1.656894,-25.25659 9.471319,-8.31593 22.143491,-2.68544 23.221829,10.3179 0.580111,6.99538 -2.194446,11.97607 -8.187655,14.69789 -5.034505,2.28642 -9.079212,2.35923 -13.37728,0.2408 z"
     id="path3070" />
  <path
     style="fill:#000000"
     d="m 333.357,173.00842 c -5.6901,-2.29624 -7.3365,-11.7562 -2.83028,-16.26241 3.11944,-3.11944 5.04223,-3.64571 9.26137,-2.53483 5.63736,1.4843 8.9772,9.62182 6.13142,14.93922 -1.06513,1.99021 -6.63882,4.90974 -9.13739,4.78621 -0.70517,-0.0349 -2.24647,-0.45255 -3.42512,-0.92819 z"
     id="path3068" />
  <path
     style="fill:#000000"
     d="m 382.68899,163.75 c -4.35079,-5.86048 -5.95721,-13.45258 -3.31111,-15.64865 2.7352,-2.27001 9.59295,8.39017 9.61654,14.94865 0.006,1.61729 -1.85062,3.95 -3.14353,3.95 -0.41201,0 -1.83486,-1.4625 -3.1619,-3.25 z"
     id="path3066" />
  <path
     style="fill:#000000"
     d="M 360,122.47767 C 350.13488,117.39676 339.8777,115.1881 328.0032,115 c -9.45725,-0.14981 -11.79903,-0.0293 -10.01448,-1.94484 -0.78957,-1.31989 10.95922,-2.59926 22.86147,-0.68438 11.48971,1.4229 23.27569,6.08086 27.82127,12.57058 1.97401,2.81829 1.55357,4.21907 -8.67146,-2.46366 z"
     id="path3064"
     inkscape:connector-curvature="0"
     sodipodi:nodetypes="csccscc" />
  <path
     style="fill:#000000"
     d="m 22.634859,123.92742 c -7.098854,-5.58396 1.171604,-16.66446 9.300675,-12.46076 5.314196,2.74808 5.371924,10.28875 0.09964,13.01515 -3.959069,2.04732 -6.265724,1.91128 -9.400315,-0.55439 z"
     id="path3062" />
  <path
     style="fill:#000000"
     d="m 367.01606,113.29328 c -3.3337,-4.23811 -0.87226,-10.51413 4.52854,-11.54656 1.93663,-0.37021 2.83072,0.22422 4.44016,2.95203 2.51915,4.26963 2.50996,4.71309 -0.17282,8.34174 -2.75284,3.72342 -5.99265,3.81653 -8.79588,0.25279 z"
     id="path3060" />
  <path
     style="fill:#000000"
     d="M 328.46487,107.94316 C 326.60558,104.93476 332.91686,96 336.90121,96 c 2.58084,0 2.8486,3.649345 0.58844,8.02002 -2.2141,4.28159 -7.40786,6.53937 -9.02478,3.92314 z"
     id="path3058" />
  <path
     style="fill:#000000"
     d="m 317.56566,111.82399 c -1.78325,-3.67547 3.82761,-9.87857 7.02413,-13.720479 2.76719,-3.626411 2.07301,-3.051856 5.76438,-6.495461 5.58107,-5.890116 5.93759,-3.203618 2.98333,-11.41189 -3.89479,-5.951231 -8.90821,-11.195197 -14.52274,-15.549488 -2.93854,-1.842613 -6.3014,-3.137806 -9.56454,-4.066781 -8.23922,-2.664588 -17.43111,-2.198167 -25.59167,-0.287889 -3.44903,0.196923 -11.43061,3.566358 1.78641,-4.468557 4.74945,-2.391013 6.34076,-3.639227 9.58673,-5.190628 4.67725,-2.855429 9.67098,-5.275244 14.84835,-7.072848 3.08963,-0.75826 3.44239,2.55161 0.0824,1.904123 -2.69085,1.844632 -5.68987,2.252806 -9.26965,4.644208 -6.76004,3.762264 -7.59389,4.730611 -11.02605,6.8917 2.44257,-1.651818 14.31211,-0.864191 21.22834,1.153254 4.53752,1.489396 8.89481,3.734117 12.68816,6.631082 5.53377,4.489756 9.16849,9.580357 13.75285,16.022023 3.12736,2.417589 1.75119,2.074126 7.21257,-1.659234 3.16295,-1.658271 6.00997,-2.989774 10.5175,-3.180219 3.54789,0.604361 3.49096,3.761413 -0.48071,3.203999 -6.83941,2.098693 -13.09048,5.854449 -18.83612,10.062893 -5.6691,4.497078 -9.79183,10.531811 -14.03066,16.304552 -5.56686,9.42383 -0.85508,7.81934 -1.75608,7.93356 z"
     id="path3056"
     inkscape:connector-curvature="0"
     sodipodi:nodetypes="ccccccccccccccccccccccc" />
  <path
     style="fill:#000000"
     d="m 274.1296,100.38509 c -3.10243,-6.809087 5.17844,-14.066493 9.3137,-8.162584 C 286.80156,97.017096 284.11502,103 278.60381,103 c -2.56968,0 -3.54159,-0.56802 -4.47421,-2.61491 z"
     id="path3054" />
  <path
     style="fill:#000000"
     d="m 313.20284,99.744406 c -2.11588,-2.549475 -2.46934,-6.688734 -0.79002,-9.251691 4.22162,-6.44301 12.27025,1.625409 8.552,8.573026 -1.18756,2.218969 -6.12533,2.650709 -7.76198,0.678665 z"
     id="path3052" />
  <path
     style="fill:#000000"
     d="m 177.57143,93.428571 c -3.3562,-3.356194 -0.70916,-11.444288 3.73527,-11.413258 2.75326,0.01922 4.08642,0.900513 5.54001,3.662245 2.99811,5.696231 -4.80734,12.218956 -9.27528,7.751013 z"
     id="path3050" />
  <path
     style="fill:#000000"
     d="M 151,90.020236 C 151,86.767173 154.11241,80 155.60858,80 c 1.89295,0 1.77961,4.379691 -0.22252,8.598871 C 153.62112,92.318211 151,93.167622 151,90.020236 z"
     id="path3048" />
  <path
     style="fill:#000000"
     d="m 133.5,88.179735 c -1.65,-1.01271 -4.16035,-2.131651 -5.57856,-2.486536 -1.41821,-0.354885 -3.10571,-1.802209 -3.75,-3.216275 -1.66965,-3.66449 -1.50417,-4.675941 0.57856,-3.536282 0.9625,0.526674 4.81366,2.365961 8.55814,4.087304 4.91582,2.259811 6.71931,3.591026 6.48852,4.789401 -0.45477,2.361408 -2.81807,2.497421 -6.29666,0.362388 z"
     id="path3046" />
  <path
     style="fill:#000000"
     d="m 242.59656,77.834392 c -3.13376,-4.47407 -0.67358,-11.016349 3.33574,-8.870626 2.58856,1.385356 4.66899,6.856665 3.38587,8.904478 -1.60097,2.555087 -4.91996,2.538371 -6.72161,-0.03385 z"
     id="path3044" />
  <path
     style="fill:#000000"
     d="M 122.49811,78.501307 C 121.61969,76.64323 109.58719,62.352173 99.635661,59.554515 c -7.793755,-2.191047 -0.477762,-1.991782 3.716299,-0.939138 2.33328,1.639524 4.05239,2.589999 8.22389,5.143369 3.50458,2.433124 5.33962,3.956828 8.47911,7.393147 3.25922,3.356413 7.47597,6.911288 8.60662,17.626736 -2.08705,0.800879 -3.91631,-5.524039 -6.16347,-10.277322 z"
     id="path3042"
     inkscape:connector-curvature="0"
     sodipodi:nodetypes="ssccccs" />
  <path
     style="fill:#000000"
     d="m 131.24572,75.845717 c -1.83307,-1.833069 -1.51572,-6.291391 0.58302,-8.190729 2.53955,-2.298259 4.43087,-2.072003 7.18489,0.859517 1.9674,2.0942 2.20243,2.971748 1.4061,5.25 -0.76006,2.174455 -1.67114,2.796145 -4.44223,3.031212 -1.91734,0.162644 -4.04664,-0.264856 -4.73178,-0.95 z"
     id="path3040" />
  <path
     style="fill:#000000"
     d="m 253.75,63.281685 c -7.60948,-9.876535 -7.1827,-13.030031 1.47429,-2.161858 0.53487,0.340905 0.81572,1.403097 0.6241,2.360426 -0.32117,1.604609 -0.48511,1.589096 -2.09839,-0.198568 z"
     id="path3038" />
  <path
     style="fill:#000000"
     d="m 59.606989,62.418213 c -0.260922,-0.601302 -0.597331,-1.411828 -0.09933,-1.984925 0.668984,-0.558439 1.610938,-0.443146 2.424329,-0.447803 1.234654,0.01533 2.524656,0.240072 3.716419,-0.184147 0.808324,-0.265156 1.052783,-1.242225 0.802171,-1.979029 -0.303262,-0.746152 0.410558,-1.314754 1.125487,-1.196926 0.630495,-0.02393 1.476901,-0.04053 1.744719,-0.736442 0.08143,-0.41849 0.08463,-0.713567 0.570264,-0.457978 0.545338,0.157934 1.380004,0.101902 1.480112,-0.59606 0.180002,-0.514656 -0.239125,-1.397296 -0.136165,-1.662688 1.320498,0.659946 2.617637,1.654652 3.109798,3.100458 0.303427,0.822632 -0.126965,1.779169 -0.927555,2.124248 -0.75998,0.403079 -1.643327,0.431913 -2.473359,0.516057 -3.623331,1.354013 -6.690056,3.970893 -10.495842,4.872496 -0.564744,-0.218556 -0.593683,-0.900627 -0.841043,-1.367261 z"
     id="path3036"
     inkscape:connector-curvature="0" />
  <path
     style="fill:#000000"
     d="M 96,58.460129 C 89.344792,56.83464 82.446007,57.111874 75.651372,57 c 2.294583,-2.631945 5.577577,-6.428126 9.448725,-4.290371 2.442304,3.465913 4.880113,3.778338 7.84454,0.809613 2.073861,-1.614716 5.785931,-3.242835 6.087571,0.739901 3.745822,2.633905 9.075852,-0.39743 7.333472,-5.114999 3.51888,-2.771087 8.3283,-3.96253 12.79781,-4.881943 2.64734,-1.349579 7.48785,-3.089042 9.57395,-1.378388 -2.38064,2.554689 -6.29685,3.031217 -9.42228,4.460843 -4.35572,1.474927 -8.22002,4.001645 -12.01721,6.509723 -2.61008,4.776734 -5.87049,7.16705 -11.29795,4.60575 z"
     id="path3034"
     inkscape:connector-curvature="0" />
  <path
     style="fill:#000000"
     d="M 247.69424,56.414928 244.88847,54 l 2.48838,0 c 1.64024,0 2.1763,1.018229 3.14707,2.075361 3.91615,4.26453 0.93128,3.57663 -2.82968,0.339567 z"
     id="path3032" />
  <path
     style="fill:#000000"
     d="m 154.2,51.8 c -4.27145,-4.318283 5.16232,-0.402899 2,1.2 -0.7898,-0.115543 -1.43171,-0.68391 -2,-1.2 z"
     id="path3030"
     inkscape:connector-curvature="0" />
  <path
     style="fill:#000000"
     d="m 154.69494,47.657171 c -2.01161,-1.38723 -2.78746,-8.740491 0.7036,-5.190393 1.59869,1.471481 6.10895,8.17982 1.35795,7.16337 -0.84355,-0.467259 -1.5343,-1.173122 -2.06155,-1.972977 z"
     id="path3028"
     inkscape:connector-curvature="0" />
  <path
     style="fill:#000000"
     d="m 145.03839,46.963924 c -4.45147,-1.717799 -9.239,-1.856246 -13.91285,-2.266665 -2.52245,-2.028494 5.21173,-5.004646 6.52945,-1.652679 1.72732,1.556927 2.1403,0.747969 2.16562,-0.758762 1.87754,-0.801965 4.98655,-0.268081 3.73169,2.262289 3.81,-3.167771 5.95201,1.67143 7.91829,4.25601 -2.20483,-0.05668 -4.33021,-1.20801 -6.4322,-1.840193 z"
     id="path3026"
     inkscape:connector-curvature="0" />
  <path
     style="fill:#000000"
     d="m 100.5,45.370495 c -2.866647,-2.838785 -7.000924,-3.873903 -9.969761,-6.457735 -1.992906,-0.308191 -6.129734,-1.212266 -3.315044,-4.043093 1.56674,-1.557343 5.555749,-4.54578 6.954597,-3.152367 -3.733976,1.669924 -3.117457,6.293132 1.33064,5.403038 2.074052,1.20178 9.070668,4.785252 7.901008,-0.211688 -0.2146,-3.17177 1.64744,-2.407805 2.25451,-0.148702 3.05559,0.364949 1.99592,-2.805349 0.2915,-3.79537 2.27159,-1.277525 5.54925,0.443449 7.19774,-2.618334 2.0222,-0.04625 6.98161,-2.114518 2.64335,-3.047412 -3.37506,-1.279131 -6.62862,2.710311 -9.29374,1.176978 4.8436,-3.615217 11.22754,-2.289943 16.73768,-1.454198 2.18663,-0.410456 5.16231,2.745042 1.22811,1.77935 -4.64913,-2.133828 -5.88389,4.826244 -10.68046,3.852281 -3.06067,-0.191653 -3.56862,5.506425 -6.70225,6.938978 -1.5761,1.691611 -2.40127,3.928515 -2.67657,6.02772 3.45444,3.753546 -2.997,1.899987 -3.90131,-0.249446 z"
     id="path3024"
     inkscape:connector-curvature="0" />
  <path
     style="fill:#000000"
     d="m 229.96603,47.096407 c -2.20491,-0.534829 -6.53421,-0.965024 -5.21912,-4.196594 1.13747,-1.087044 4.90352,0.390007 5.41901,1.152856 -0.20331,1.975099 3.57215,-0.607883 4.19897,1.854839 2.99017,2.099019 2.04846,-3.230041 1.77612,-4.837106 1.20851,-2.516354 6.54127,2.22204 4.06533,4.364854 -2.71548,2.412495 -6.87039,2.262143 -10.24031,1.661151 z"
     id="path3022"
     inkscape:connector-curvature="0" />
  <path
     style="fill:#000000"
     d="m 212,44.622445 c 0,-5.044616 6.39448,-6.237449 8.69752,-1.622445 1.12462,2.253591 1.02852,2.564098 -0.97497,3.15032 -1.2224,0.357676 -3.46005,0.695176 -4.97255,0.75 -2.25685,0.08181 -2.75,-0.32668 -2.75,-2.277875 z"
     id="path3020" />
  <path
     style="fill:#000000"
     d="m 160.50921,43.870779 c 0.66457,-2.186251 3.80967,-6.48054 5.85149,-7.989544 0.47338,-0.349855 1.6438,-0.431314 2.60092,-0.18102 0.95713,0.250294 2.37785,-0.18254 3.15716,-0.961854 0.77931,-0.779313 2.0839,-1.642982 2.89908,-1.919265 2.81441,-1.308023 1.76708,-1.195425 3.98214,-1.115702 2.475,0.383568 5.76855,0.651774 7.31899,0.596013 2.10312,-0.07564 2.6745,0.275166 2.25,1.381392 C 188.25605,34.496326 188,35.351771 188,35.581787 188,35.811804 185.50707,36 182.46016,36 c -5.85804,0 -10.27872,1.751683 -18.31588,7.257625 -4.29883,2.944958 -4.34631,2.952967 -3.63507,0.613154 z"
     id="path3018" />
  <path
     style="fill:#000000"
     d="m 281.38586,41.56314 c -1.11,-1.638353 -3.67333,-0.394686 -4.38977,-2.79956 -0.93453,-1.312966 -5.57535,-0.149061 -4.4922,-1.950196 2.75799,-0.58103 5.68357,-0.72898 8.45774,-0.269971 0.94327,0.687794 -1.73873,2.525364 0.60393,2.391721 2.41955,0.468601 7.09357,-0.748612 7.87096,2.099189 -1.99446,0.815736 -4.58724,-0.50988 -6.01086,1.847064 -0.95403,0.347773 -1.75351,-0.504019 -2.0398,-1.318247 z"
     id="path3016"
     inkscape:connector-curvature="0" />
  <path
     style="fill:#000000"
     d="m 242,39.622445 c -0.25461,-2.940849 2.73182,-4.834521 5.37505,-4.883831 2.33372,-0.10544 5.29801,0.111035 6.17102,-2.418998 1.47837,-1.055491 3.50488,3.221724 4.1292,1.065297 -1.52434,-0.608674 -2.49047,-4.51493 -2.07432,-4.535857 1.37789,1.532973 4.23095,0.86507 5.10248,2.871218 2.54071,0.779441 6.25572,-1.838795 7.72691,1.040926 2.6726,1.084549 4.38756,-3.066103 1.80204,-4.333072 -1.45479,-1.796808 -1.93008,-4.12778 -4.91254,-3.535673 -3.49407,-0.715152 2.53473,-3.756239 -1.30808,-4.132765 -1.92522,-1.362669 3.65359,-0.541447 4.38064,0.528354 1.12998,1.431507 1.88412,3.187378 4.23809,2.555917 6.14463,0.271408 12.5431,-0.41051 18.40348,1.907894 2.39642,2.596895 -2.65782,2.961944 -4.42844,3.247956 -3.63715,0.379349 -7.23431,1.093309 -10.65643,2.404678 -2.26357,0.124115 -4.3665,0.07292 -5.02786,2.72498 -2.05569,2.989088 -6.33022,2.500505 -9.51887,2.643724 -5.0185,-0.124107 -9.88277,1.45532 -14.31959,3.690155 -1.71734,0.715698 -5.48182,2.89826 -5.08278,-0.840903 z"
     id="path3014"
     inkscape:connector-curvature="0" />
  <path
     style="fill:#000000"
     d="m 278.5,26 c 2.35835,-1.320451 -4.30952,-1.33804 -5.06436,-0.215045 0.92109,2.018343 3.5937,0.778077 5.06436,0.215045 z"
     id="path3012"
     inkscape:connector-curvature="0" />
  <path
     style="fill:#000000"
     d="m 313.08775,40.605735 c -1.03341,-1.304391 -0.79812,-3.623747 0.70681,-4.472122 1.12799,-0.443663 2.23478,0.434482 3.04465,1.130244 0.66691,0.622974 1.70745,1.805311 0.72667,2.619063 -0.86996,0.787873 -1.95922,1.557596 -3.18071,1.538657 -0.53353,-0.05261 -0.97024,-0.415831 -1.29742,-0.815842 z"
     id="path3010"
     inkscape:connector-curvature="0" />
  <path
     style="fill:#000000"
     d="m 193,37 c -0.26607,-1.503338 -2.16609,-0.571519 -2.92823,-1.468325 -0.1591,-1.350383 1.64327,-1.85026 2.67823,-2.166595 1.56217,-0.421722 3.32047,-1.077555 4.11077,-2.598922 0.52174,-1.300083 -1.17543,-1.824411 -2.17291,-1.763795 -0.77521,0.06488 -3.19269,-0.225381 -2.40565,-1.305952 1.95838,-0.751387 4.11053,-0.760631 6.18209,-0.858335 3.54812,-0.132781 7.11836,-0.101473 10.64075,-0.595447 0.86139,0.04201 2.44896,-0.920915 0.69338,-1.005896 -3.0321,-0.489203 -6.18294,0.107267 -9.15881,-0.776978 -1.6137,-0.612051 0.51277,-1.646664 1.32261,-0.971744 1.571,0.440581 3.23177,-0.0063 4.63058,-0.757955 1.26245,-0.821727 1.95712,0.640921 3.06127,0.866189 2.28976,0.723258 4.8216,0.0035 7.03495,1.015474 0.41785,0.873106 1.15457,1.555884 2.25575,1.44983 1.10562,0.192473 1.50432,1.915132 0.22471,2.220315 -2.86724,1.072065 -6.00312,0.806244 -8.96263,1.471308 -4.18536,0.852271 -8.36862,2.153659 -11.97882,4.489393 -1.17753,0.682759 -1.93924,1.809801 -2.81439,2.805972 C 194.80544,37.769613 192.97385,38.710293 193,37 z"
     id="path3008"
     inkscape:connector-curvature="0" />
  <path
     style="fill:#000000"
     d="m 308.09218,35.611065 c -1.46631,-1.377598 -3.28119,-2.31634 -5.01133,-3.318496 -2.93755,-1.541684 -6.03111,-3.055257 -8.22212,-5.626648 -0.63396,-0.606495 -1.36011,-2.364203 -0.006,-2.468975 1.71134,0.401518 3.20218,1.408718 4.74206,2.221431 3.39659,1.97461 6.83365,3.894645 10.09359,6.091293 0.71621,0.588587 1.81484,1.157203 1.82895,2.204514 -0.3346,0.909839 -1.33869,1.834434 -2.35947,1.730039 -0.44674,-0.128663 -0.77439,-0.491274 -1.06584,-0.833158 z"
     id="path3006"
     inkscape:connector-curvature="0" />
  <path
     style="fill:#000000"
     d="m 148.3891,34.975458 c -5.67046,-1.444367 -0.97539,-9.313531 3.28048,-7.609985 2.62313,1.684106 0.0587,9.232739 -3.28048,7.609985 z"
     id="path3004"
     inkscape:connector-curvature="0" />
  <path
     style="fill:#000000"
     d="m 223.75,30.919901 c -3.55138,-1.45839 -0.38763,-5.521165 2.37966,-3.473448 2.23445,0.417944 6.11275,5.155587 1.48673,4.493011 -1.32985,-0.107175 -2.68688,-0.370429 -3.86639,-1.019563 z"
     id="path3002"
     inkscape:connector-curvature="0" />
  <path
     style="fill:#000000"
     d="m 136.5,29.544592 c -3.26135,-1.695201 -7.61889,-3.705752 -8.14939,-7.758441 1.9567,-6.38778 7.7258,1.265873 10.01991,3.621657 2.23598,0.250833 6.71792,3.319716 3.44207,5.503387 -1.83228,0.107903 -3.65402,-0.648413 -5.31259,-1.366603 z"
     id="path3000"
     inkscape:connector-curvature="0" />
  <path
     style="fill:#000000"
     d="m 230.80569,27.472874 c -2.28019,-3.317997 1.92771,-5.555892 4.62561,-3.745056 3.50269,1.637241 -0.46614,5.77704 -2.85202,6.125518 -0.9978,-0.351322 -1.31738,-1.544226 -1.77359,-2.380462 z"
     id="path2998"
     inkscape:connector-curvature="0" />
  <path
     style="fill:#000000"
     d="m 154.00071,24.75 c -3.9e-4,-0.4125 0.68841,-0.75 1.53067,-0.75 0.84227,0 1.80034,-0.700862 2.12905,-1.557471 0.32871,-0.856608 1.20017,-1.326262 1.93659,-1.043674 0.73641,0.282589 1.59275,0.103104 1.90298,-0.398855 0.31023,-0.501959 1.22464,-0.65916 2.03203,-0.349337 C 164.33941,20.960486 165,20.667688 165,20 c 0,-0.682103 0.67451,-0.955144 1.53953,-0.623203 0.84675,0.324925 2.42175,0.03982 3.5,-0.633558 1.55042,-0.968251 2.37879,-0.963087 3.96047,0.02469 1.66811,1.04175 2,0.998694 2,-0.259453 0,-0.829661 0.5625,-1.515365 1.25,-1.523787 0.97202,-0.01191 0.97929,-0.187329 0.0327,-0.78881 -0.6896,-0.438188 0.61089,-0.796571 3,-0.826723 2.31952,-0.02927 3.16778,0.136841 1.88502,0.369144 -2.23335,0.404454 -2.25859,0.503798 -0.59501,2.342036 1.88332,2.081042 4.4273,2.570772 4.4273,0.852278 0,-0.612312 0.85269,-0.796754 2,-0.432612 1.41932,0.450475 2,0.1797 2,-0.932612 C 190,16.705324 190.675,16 191.5,16 c 0.825,0 1.5,-0.345289 1.5,-0.767309 0,-1.346371 11.38433,-5.268484 14.5,-4.99552 2.33191,0.204298 2.96907,-0.126888 2.86111,-1.487171 -0.17064,-2.1500505 2.20317,-2.3278427 3.00994,-0.2254366 0.38396,1.0005676 1.36591,1.3382948 2.85699,0.9826159 1.24958,-0.2980711 3.83103,-0.7113411 5.73656,-0.9183777 1.90554,-0.2070367 3.63054,-0.8742139 3.83334,-1.482616 C 226.00074,6.4977835 226.79004,6 227.55195,6 c 0.86483,0 1.15225,0.6072561 0.76503,1.6163338 -0.5283,1.3767527 -0.30132,1.4456501 1.53139,0.4648163 C 231.61624,7.1350168 232,7.2034473 232,8.4648162 232,9.5858586 230.93483,10 228.05152,10 c -2.85428,0 -4.71688,0.712129 -6.72131,2.569773 -2.36844,2.195002 -3.28745,2.455088 -6.30152,1.783386 -5.69236,-1.26857 -13.35702,-0.581886 -14.76651,1.322947 -0.72389,0.978297 -2.69919,1.704187 -4.75765,1.74836 -2.24684,0.04822 -3.35908,0.497683 -3.07533,1.242775 0.24448,0.641983 -0.27732,1.444235 -1.15956,1.782783 -1.16918,0.448658 -1.30505,0.914564 -0.50114,1.718473 0.80391,0.803909 0.6862,1.519663 -0.43416,2.640025 -1.38027,1.380269 -1.85834,1.381172 -4.68572,0.0088 -6.48743,-3.148809 -10.15466,-3.849242 -15.20926,-2.904941 -2.69875,0.504183 -5.2045,0.732728 -5.56831,0.507879 -0.36381,-0.22485 -0.9391,0.314652 -1.27842,1.198892 -0.39069,1.018143 -1.3459,1.417081 -2.60478,1.087876 C 159.89453,24.421165 159,24.547506 159,24.987833 c 0,0.440326 -1.12468,0.735698 -2.49929,0.65638 -1.37462,-0.07932 -2.49962,-0.481713 -2.5,-0.894213 z"
     id="path2996" />
  <path
     style="fill:#000000"
     d="m 238.54271,22.069098 c -0.33641,-2.849919 2.94844,-0.783677 4.45587,-2.458943 1.48108,-0.79496 6.90789,0.234743 3.49723,2.016566 -2.21387,1.270469 -5.7869,2.16596 -7.9531,0.442377 z"
     id="path2994"
     inkscape:connector-curvature="0" />
  <path
     style="fill:#000000"
     d="m 249.48578,21.152451 c -2.02119,-2.804057 3.11729,-0.244591 2.59101,-3.145748 -0.42799,-3.426731 3.65048,-4.923451 6.19912,-3.133786 3.12947,1.831745 0.70044,5.518638 -2.20374,5.661617 -2.08981,0.508852 -4.49237,1.411432 -6.58639,0.617917 z"
     id="path2992"
     inkscape:connector-curvature="0" />
  <path
     style="fill:#000000"
     d="m 137.58936,18.5 c -0.38423,-1.980189 -4.74668,-4.736168 -0.15772,-4.164159 5.20306,0.189316 9.42847,-3.823167 14.55755,-4.325292 3.04675,-0.033643 8.46295,-2.6170507 10.18518,-0.6832456 -4.31882,2.4627046 -9.45693,2.9297526 -14.22389,3.9431926 -3.01971,1.432378 -5.34207,4.034031 -6.83723,6.971112 -1.31897,1.767258 -3.33962,-0.166778 -3.52389,-1.741608 z"
     id="path2990"
     inkscape:connector-curvature="0" />
  <path
     style="fill:#000000"
     d="m 225.25,19.504169 c -2.478,-1.66901 -0.18734,-3.57306 1.55858,-1.678093 1.68292,0.648683 3.35281,4.222646 0.172,2.878823 -0.65161,-0.272402 -1.25916,-0.671076 -1.73058,-1.20073 z"
     id="path2988"
     inkscape:connector-curvature="0" />
  <path
     style="fill:#000000"
     d="m 235.5,8 c 1.43918,-1.0805962 5.22508,-1.7969524 6,0 -1.244,1.0151581 -5.46728,1.8238353 -6,0 z"
     id="path2985"
     inkscape:connector-curvature="0" />
</svg>
